<svg width="305" height="195" viewBox="0 0 305 195" fill="none" xmlns="http://www.w3.org/2000/svg">
<g clip-path="url(#clip0_7_395)">
<path d="M5.02747 10.0862C7.80407 10.0862 10.0549 7.82833 10.0549 5.0431C10.0549 2.25787 7.80407 0 5.02747 0C2.25088 0 0 2.25787 0 5.0431C0 7.82833 2.25088 10.0862 5.02747 10.0862Z" fill="white"/>
<path d="M41.8956 10.0862C44.6722 10.0862 46.9231 7.82833 46.9231 5.0431C46.9231 2.25787 44.6722 0 41.8956 0C39.119 0 36.8682 2.25787 36.8682 5.0431C36.8682 7.82833 39.119 10.0862 41.8956 10.0862Z" fill="white"/>
<path d="M78.7637 10.0862C81.5403 10.0862 83.7912 7.82833 83.7912 5.0431C83.7912 2.25787 81.5403 0 78.7637 0C75.9871 0 73.7363 2.25787 73.7363 5.0431C73.7363 7.82833 75.9871 10.0862 78.7637 10.0862Z" fill="white"/>
<path d="M115.632 10.0862C118.408 10.0862 120.659 7.82833 120.659 5.0431C120.659 2.25787 118.408 0 115.632 0C112.855 0 110.604 2.25787 110.604 5.0431C110.604 7.82833 112.855 10.0862 115.632 10.0862Z" fill="white"/>
<path d="M152.5 10.0862C155.277 10.0862 157.527 7.82833 157.527 5.0431C157.527 2.25787 155.277 0 152.5 0C149.723 0 147.473 2.25787 147.473 5.0431C147.473 7.82833 149.723 10.0862 152.5 10.0862Z" fill="white"/>
<path d="M189.368 10.0862C192.145 10.0862 194.396 7.82833 194.396 5.0431C194.396 2.25787 192.145 0 189.368 0C186.592 0 184.341 2.25787 184.341 5.0431C184.341 7.82833 186.592 10.0862 189.368 10.0862Z" fill="white"/>
<path d="M226.236 10.0862C229.013 10.0862 231.264 7.82833 231.264 5.0431C231.264 2.25787 229.013 0 226.236 0C223.46 0 221.209 2.25787 221.209 5.0431C221.209 7.82833 223.46 10.0862 226.236 10.0862Z" fill="white"/>
<path d="M263.104 10.0862C265.881 10.0862 268.132 7.82833 268.132 5.0431C268.132 2.25787 265.881 0 263.104 0C260.328 0 258.077 2.25787 258.077 5.0431C258.077 7.82833 260.328 10.0862 263.104 10.0862Z" fill="white"/>
<path d="M299.973 10.0862C302.749 10.0862 305 7.82833 305 5.0431C305 2.25787 302.749 0 299.973 0C297.196 0 294.945 2.25787 294.945 5.0431C294.945 7.82833 297.196 10.0862 299.973 10.0862Z" fill="white"/>
<path d="M5.02747 47.069C7.80407 47.069 10.0549 44.8111 10.0549 42.0259C10.0549 39.2407 7.80407 36.9828 5.02747 36.9828C2.25088 36.9828 0 39.2407 0 42.0259C0 44.8111 2.25088 47.069 5.02747 47.069Z" fill="white"/>
<path d="M41.8956 47.069C44.6722 47.069 46.9231 44.8111 46.9231 42.0259C46.9231 39.2407 44.6722 36.9828 41.8956 36.9828C39.119 36.9828 36.8682 39.2407 36.8682 42.0259C36.8682 44.8111 39.119 47.069 41.8956 47.069Z" fill="white"/>
<path d="M78.7637 47.069C81.5403 47.069 83.7912 44.8111 83.7912 42.0259C83.7912 39.2407 81.5403 36.9828 78.7637 36.9828C75.9871 36.9828 73.7363 39.2407 73.7363 42.0259C73.7363 44.8111 75.9871 47.069 78.7637 47.069Z" fill="white"/>
<path d="M115.632 47.069C118.408 47.069 120.659 44.8111 120.659 42.0259C120.659 39.2407 118.408 36.9828 115.632 36.9828C112.855 36.9828 110.604 39.2407 110.604 42.0259C110.604 44.8111 112.855 47.069 115.632 47.069Z" fill="white"/>
<path d="M152.5 47.069C155.277 47.069 157.527 44.8111 157.527 42.0259C157.527 39.2407 155.277 36.9828 152.5 36.9828C149.723 36.9828 147.473 39.2407 147.473 42.0259C147.473 44.8111 149.723 47.069 152.5 47.069Z" fill="white"/>
<path d="M189.368 47.069C192.145 47.069 194.396 44.8111 194.396 42.0259C194.396 39.2407 192.145 36.9828 189.368 36.9828C186.592 36.9828 184.341 39.2407 184.341 42.0259C184.341 44.8111 186.592 47.069 189.368 47.069Z" fill="white"/>
<path d="M226.236 47.069C229.013 47.069 231.264 44.8111 231.264 42.0259C231.264 39.2407 229.013 36.9828 226.236 36.9828C223.46 36.9828 221.209 39.2407 221.209 42.0259C221.209 44.8111 223.46 47.069 226.236 47.069Z" fill="white"/>
<path d="M263.104 47.069C265.881 47.069 268.132 44.8111 268.132 42.0259C268.132 39.2407 265.881 36.9828 263.104 36.9828C260.328 36.9828 258.077 39.2407 258.077 42.0259C258.077 44.8111 260.328 47.069 263.104 47.069Z" fill="white"/>
<path d="M299.973 47.069C302.749 47.069 305 44.8111 305 42.0259C305 39.2407 302.749 36.9828 299.973 36.9828C297.196 36.9828 294.945 39.2407 294.945 42.0259C294.945 44.8111 297.196 47.069 299.973 47.069Z" fill="white"/>
<path d="M5.02747 84.0517C7.80407 84.0517 10.0549 81.7938 10.0549 79.0086C10.0549 76.2234 7.80407 73.9655 5.02747 73.9655C2.25088 73.9655 0 76.2234 0 79.0086C0 81.7938 2.25088 84.0517 5.02747 84.0517Z" fill="white"/>
<path d="M41.8956 84.0517C44.6722 84.0517 46.9231 81.7938 46.9231 79.0086C46.9231 76.2234 44.6722 73.9655 41.8956 73.9655C39.119 73.9655 36.8682 76.2234 36.8682 79.0086C36.8682 81.7938 39.119 84.0517 41.8956 84.0517Z" fill="white"/>
<path d="M78.7637 84.0517C81.5403 84.0517 83.7912 81.7938 83.7912 79.0086C83.7912 76.2234 81.5403 73.9655 78.7637 73.9655C75.9871 73.9655 73.7363 76.2234 73.7363 79.0086C73.7363 81.7938 75.9871 84.0517 78.7637 84.0517Z" fill="white"/>
<path d="M115.632 84.0517C118.408 84.0517 120.659 81.7938 120.659 79.0086C120.659 76.2234 118.408 73.9655 115.632 73.9655C112.855 73.9655 110.604 76.2234 110.604 79.0086C110.604 81.7938 112.855 84.0517 115.632 84.0517Z" fill="white"/>
<path d="M152.5 84.0517C155.277 84.0517 157.527 81.7938 157.527 79.0086C157.527 76.2234 155.277 73.9655 152.5 73.9655C149.723 73.9655 147.473 76.2234 147.473 79.0086C147.473 81.7938 149.723 84.0517 152.5 84.0517Z" fill="white"/>
<path d="M189.368 84.0517C192.145 84.0517 194.396 81.7938 194.396 79.0086C194.396 76.2234 192.145 73.9655 189.368 73.9655C186.592 73.9655 184.341 76.2234 184.341 79.0086C184.341 81.7938 186.592 84.0517 189.368 84.0517Z" fill="white"/>
<path d="M226.236 84.0517C229.013 84.0517 231.264 81.7938 231.264 79.0086C231.264 76.2234 229.013 73.9655 226.236 73.9655C223.46 73.9655 221.209 76.2234 221.209 79.0086C221.209 81.7938 223.46 84.0517 226.236 84.0517Z" fill="white"/>
<path d="M263.104 84.0517C265.881 84.0517 268.132 81.7938 268.132 79.0086C268.132 76.2234 265.881 73.9655 263.104 73.9655C260.328 73.9655 258.077 76.2234 258.077 79.0086C258.077 81.7938 260.328 84.0517 263.104 84.0517Z" fill="white"/>
<path d="M299.973 84.0517C302.749 84.0517 305 81.7938 305 79.0086C305 76.2234 302.749 73.9655 299.973 73.9655C297.196 73.9655 294.945 76.2234 294.945 79.0086C294.945 81.7938 297.196 84.0517 299.973 84.0517Z" fill="white"/>
<path d="M5.02747 121.034C7.80407 121.034 10.0549 118.777 10.0549 115.991C10.0549 113.206 7.80407 110.948 5.02747 110.948C2.25088 110.948 0 113.206 0 115.991C0 118.777 2.25088 121.034 5.02747 121.034Z" fill="white"/>
<path d="M41.8956 121.034C44.6722 121.034 46.9231 118.777 46.9231 115.991C46.9231 113.206 44.6722 110.948 41.8956 110.948C39.119 110.948 36.8682 113.206 36.8682 115.991C36.8682 118.777 39.119 121.034 41.8956 121.034Z" fill="white"/>
<path d="M78.7637 121.034C81.5403 121.034 83.7912 118.777 83.7912 115.991C83.7912 113.206 81.5403 110.948 78.7637 110.948C75.9871 110.948 73.7363 113.206 73.7363 115.991C73.7363 118.777 75.9871 121.034 78.7637 121.034Z" fill="white"/>
<path d="M115.632 121.034C118.408 121.034 120.659 118.777 120.659 115.991C120.659 113.206 118.408 110.948 115.632 110.948C112.855 110.948 110.604 113.206 110.604 115.991C110.604 118.777 112.855 121.034 115.632 121.034Z" fill="white"/>
<path d="M152.5 121.034C155.277 121.034 157.527 118.777 157.527 115.991C157.527 113.206 155.277 110.948 152.5 110.948C149.723 110.948 147.473 113.206 147.473 115.991C147.473 118.777 149.723 121.034 152.5 121.034Z" fill="white"/>
<path d="M189.368 121.034C192.145 121.034 194.396 118.777 194.396 115.991C194.396 113.206 192.145 110.948 189.368 110.948C186.592 110.948 184.341 113.206 184.341 115.991C184.341 118.777 186.592 121.034 189.368 121.034Z" fill="white"/>
<path d="M226.236 121.034C229.013 121.034 231.264 118.777 231.264 115.991C231.264 113.206 229.013 110.948 226.236 110.948C223.46 110.948 221.209 113.206 221.209 115.991C221.209 118.777 223.46 121.034 226.236 121.034Z" fill="white"/>
<path d="M263.104 121.034C265.881 121.034 268.132 118.777 268.132 115.991C268.132 113.206 265.881 110.948 263.104 110.948C260.328 110.948 258.077 113.206 258.077 115.991C258.077 118.777 260.328 121.034 263.104 121.034Z" fill="white"/>
<path d="M299.973 121.034C302.749 121.034 305 118.777 305 115.991C305 113.206 302.749 110.948 299.973 110.948C297.196 110.948 294.945 113.206 294.945 115.991C294.945 118.777 297.196 121.034 299.973 121.034Z" fill="white"/>
<path d="M5.02747 158.017C7.80407 158.017 10.0549 155.759 10.0549 152.974C10.0549 150.189 7.80407 147.931 5.02747 147.931C2.25088 147.931 0 150.189 0 152.974C0 155.759 2.25088 158.017 5.02747 158.017Z" fill="white"/>
<path d="M41.8956 158.017C44.6722 158.017 46.9231 155.759 46.9231 152.974C46.9231 150.189 44.6722 147.931 41.8956 147.931C39.119 147.931 36.8682 150.189 36.8682 152.974C36.8682 155.759 39.119 158.017 41.8956 158.017Z" fill="white"/>
<path d="M78.7637 158.017C81.5403 158.017 83.7912 155.759 83.7912 152.974C83.7912 150.189 81.5403 147.931 78.7637 147.931C75.9871 147.931 73.7363 150.189 73.7363 152.974C73.7363 155.759 75.9871 158.017 78.7637 158.017Z" fill="white"/>
<path d="M115.632 158.017C118.408 158.017 120.659 155.759 120.659 152.974C120.659 150.189 118.408 147.931 115.632 147.931C112.855 147.931 110.604 150.189 110.604 152.974C110.604 155.759 112.855 158.017 115.632 158.017Z" fill="white"/>
<path d="M152.5 158.017C155.277 158.017 157.527 155.759 157.527 152.974C157.527 150.189 155.277 147.931 152.5 147.931C149.723 147.931 147.473 150.189 147.473 152.974C147.473 155.759 149.723 158.017 152.5 158.017Z" fill="white"/>
<path d="M189.368 158.017C192.145 158.017 194.396 155.759 194.396 152.974C194.396 150.189 192.145 147.931 189.368 147.931C186.592 147.931 184.341 150.189 184.341 152.974C184.341 155.759 186.592 158.017 189.368 158.017Z" fill="white"/>
<path d="M226.236 158.017C229.013 158.017 231.264 155.759 231.264 152.974C231.264 150.189 229.013 147.931 226.236 147.931C223.46 147.931 221.209 150.189 221.209 152.974C221.209 155.759 223.46 158.017 226.236 158.017Z" fill="white"/>
<path d="M263.104 158.017C265.881 158.017 268.132 155.759 268.132 152.974C268.132 150.189 265.881 147.931 263.104 147.931C260.328 147.931 258.077 150.189 258.077 152.974C258.077 155.759 260.328 158.017 263.104 158.017Z" fill="white"/>
<path d="M299.973 158.017C302.749 158.017 305 155.759 305 152.974C305 150.189 302.749 147.931 299.973 147.931C297.196 147.931 294.945 150.189 294.945 152.974C294.945 155.759 297.196 158.017 299.973 158.017Z" fill="white"/>
<path d="M5.02747 195C7.80407 195 10.0549 192.742 10.0549 189.957C10.0549 187.172 7.80407 184.914 5.02747 184.914C2.25088 184.914 0 187.172 0 189.957C0 192.742 2.25088 195 5.02747 195Z" fill="white"/>
<path d="M41.8956 195C44.6722 195 46.9231 192.742 46.9231 189.957C46.9231 187.172 44.6722 184.914 41.8956 184.914C39.119 184.914 36.8682 187.172 36.8682 189.957C36.8682 192.742 39.119 195 41.8956 195Z" fill="white"/>
<path d="M78.7637 195C81.5403 195 83.7912 192.742 83.7912 189.957C83.7912 187.172 81.5403 184.914 78.7637 184.914C75.9871 184.914 73.7363 187.172 73.7363 189.957C73.7363 192.742 75.9871 195 78.7637 195Z" fill="white"/>
<path d="M115.632 195C118.408 195 120.659 192.742 120.659 189.957C120.659 187.172 118.408 184.914 115.632 184.914C112.855 184.914 110.604 187.172 110.604 189.957C110.604 192.742 112.855 195 115.632 195Z" fill="white"/>
<path d="M152.5 195C155.277 195 157.527 192.742 157.527 189.957C157.527 187.172 155.277 184.914 152.5 184.914C149.723 184.914 147.473 187.172 147.473 189.957C147.473 192.742 149.723 195 152.5 195Z" fill="white"/>
<path d="M189.368 195C192.145 195 194.396 192.742 194.396 189.957C194.396 187.172 192.145 184.914 189.368 184.914C186.592 184.914 184.341 187.172 184.341 189.957C184.341 192.742 186.592 195 189.368 195Z" fill="white"/>
<path d="M226.236 195C229.013 195 231.264 192.742 231.264 189.957C231.264 187.172 229.013 184.914 226.236 184.914C223.46 184.914 221.209 187.172 221.209 189.957C221.209 192.742 223.46 195 226.236 195Z" fill="white"/>
<path d="M263.104 195C265.881 195 268.132 192.742 268.132 189.957C268.132 187.172 265.881 184.914 263.104 184.914C260.328 184.914 258.077 187.172 258.077 189.957C258.077 192.742 260.328 195 263.104 195Z" fill="white"/>
<path d="M299.973 195C302.749 195 305 192.742 305 189.957C305 187.172 302.749 184.914 299.973 184.914C297.196 184.914 294.945 187.172 294.945 189.957C294.945 192.742 297.196 195 299.973 195Z" fill="white"/>
</g>
<defs>
<clipPath id="clip0_7_395">
<rect width="305" height="195" fill="white"/>
</clipPath>
</defs>
</svg>
