<svg width="374" height="89" viewBox="0 0 374 89" fill="none" xmlns="http://www.w3.org/2000/svg">
<rect x="3" y="3" width="368" height="83" rx="12" fill="#3C473D" stroke="#3C3D32" stroke-width="6"/>
<path d="M108.2 55.2L124.1 52.6L126.25 32.2L114.6 27.6L98.55 29.25L98.2 25.05L115.35 23.35L131.25 29.3L128.3 56.25L108.95 59.45L108.2 55.2ZM101.15 31.15H105.7L106.7 60.1H102.15L101.15 31.15ZM163.052 38.5L171.452 33L173.802 36.6L165.502 42.1L163.052 38.5ZM158.102 33.25L162.452 33.1L163.402 60.05L159.052 60.2L158.102 33.25ZM213.924 55.55L199.874 60.2L195.774 46.35L207.824 41.45L209.274 45.1L200.774 48.5L202.774 54.9L213.024 51.65L209.874 37.6L197.224 40.05L196.274 36.1L213.274 32.95L219.174 59L214.924 60.2L213.924 55.55ZM256.858 33.25H261.208V52.2H256.858V33.25ZM257.708 58.5L246.358 60.3L242.858 34.05L247.258 33.25L249.958 55.5L259.358 54.1L259.708 55.7L269.508 54.3V33.25H273.808V57.9L257.958 60.1L257.708 58.5Z" fill="white"/>
</svg>
