<svg width="374" height="89" viewBox="0 0 374 89" fill="none" xmlns="http://www.w3.org/2000/svg">
<rect x="3" y="3" width="368" height="83" rx="12" fill="#D90D00" stroke="#430404" stroke-width="6"/>
<path d="M64.45 45.3L80.7 24.75L84.35 27.45L69.05 46.6V62.05H64.45V45.3ZM52.4 25L65.75 40.05L62.45 43.5L49.1 27.8L52.4 25ZM92.2238 43.05L96.4738 42.4L98.7738 58.15L107.774 57.9L108.674 39.65L91.7238 39.95L91.7738 36L113.174 35.65L111.824 61.7L95.1238 62.25L92.2238 43.05ZM126.079 35.5L130.529 35L132.679 57.9L139.729 56.75L140.179 61L128.679 62.45L126.079 35.5ZM142.879 35.15L147.229 35.2L146.229 62.25L141.879 62.2L142.879 35.15ZM186.546 25.3H191.096L191.946 57.55L214.196 55.95L214.396 60.2L187.496 62.1L186.546 25.3ZM224.814 43.05L229.064 42.4L231.364 58.15L240.364 57.9L241.264 39.65L224.314 39.95L224.364 36L245.764 35.65L244.414 61.7L227.714 62.25L224.814 43.05ZM257.969 58.65L272.319 56.6L272.169 52.5L257.319 41.55L258.819 38.05L276.719 34.8L277.369 38.85L263.419 41.3L276.269 50.4L276.619 60L258.569 62.55L257.969 58.65ZM290.043 36.7L310.093 34.75L308.843 50.45H298.143V46.5H304.643L305.293 39.05L294.643 40.15L295.993 57.8L311.993 55.3L312.293 59.4L291.993 62.35L290.043 36.7ZM324.906 25.25H331.056L330.006 52.05H325.956L324.906 25.25ZM325.006 56.15H331.006V62.15H325.006V56.15Z" fill="white"/>
</svg>
