<svg width="374" height="89" viewBox="0 0 374 89" fill="none" xmlns="http://www.w3.org/2000/svg">
<rect x="3" y="3" width="368" height="83" rx="12" fill="#19A527" stroke="#124D1B" stroke-width="6"/>
<path d="M73.45 45.3L89.7 24.75L93.35 27.45L78.05 46.6V62.05H73.45V45.3ZM61.4 25L74.75 40.05L71.45 43.5L58.1 27.8L61.4 25ZM101.224 43.05L105.474 42.4L107.774 58.15L116.774 57.9L117.674 39.65L100.724 39.95L100.774 36L122.174 35.65L120.824 61.7L104.124 62.25L101.224 43.05ZM135.079 35.5L139.529 35L141.679 57.9L148.729 56.75L149.179 61L137.679 62.45L135.079 35.5ZM151.879 35.15L156.229 35.2L155.229 62.25L150.879 62.2L151.879 35.15ZM212.046 25.25H216.696L216.646 52.3H212.046V25.25ZM213.046 59.7L198.696 62.25L193.946 26.25L198.646 25.4L202.796 57.55L214.546 55.5L214.896 57.75L228.246 55.55V25.25H232.846V59L213.446 61.95L213.046 59.7ZM247.095 43.05L251.345 42.4L253.645 58.15L262.645 57.9L263.545 39.65L246.595 39.95L246.645 36L268.045 35.65L266.695 61.7L249.995 62.25L247.095 43.05ZM296.25 40.2L288.8 41.6L287.9 37.3L299.85 35.05L303.85 61.5L299.4 62.2L296.25 40.2ZM281.8 35.25L286.15 35.1L287.1 62.05L282.75 62.2L281.8 35.25ZM316.799 25.25H322.949L321.899 52.05H317.849L316.799 25.25ZM316.899 56.15H322.899V62.15H316.899V56.15Z" fill="white"/>
</svg>
